PathFileType	4	(X/Y/Z)	Patient4_TMGait_0pt2_03_right_18.trc.trc
DataRate	CameraRate	NumFrames	NumMarkers	Units	OrigDataRate	OrigDataStartFrame	OrigNumFrames
45.307443365696	45.307443365696	6	33	mm	45.307443365696	36	       141
Frame#	Time	Sacral			L.Shoulder			Chest			R.Shoulder			Neck			R.ASIS			L.ASIS			R.Thigh.Superior			R.Thigh.Lateral			R.Thigh.Inferior			R.Patella			L.Thigh.Superior			L.Thigh.Lateral			L.Thigh.Inferior			L.Patella			L.Shank.Superior			L.Shank.Lateral			L.Shank.Inferior			R.Shank.Superior			R.Shank.Lateral			R.Shank.Inferior			R.Heel			R.Midfoot.Superior			R.Midfoot.Lateral			R.Toe			L.Heel			L.Midfoot.Lateral			L.Midfoot.Superior			L.Toe			L.Elbow			L.Wrist			R.Elbow			R.Wrist			
		X1	Y1	Z1	X2	Y2	Z2	X3	Y3	Z3	X4	Y4	Z4	X5	Y5	Z5	X6	Y6	Z6	X7	Y7	Z7	X8	Y8	Z8	X9	Y9	Z9	X10	Y10	Z10	X11	Y11	Z11	X12	Y12	Z12	X13	Y13	Z13	X14	Y14	Z14	X15	Y15	Z15	X16	Y16	Z16	X17	Y17	Z17	X18	Y18	Z18	X19	Y19	Z19	X20	Y20	Z20	X21	Y21	Z21	X22	Y22	Z22	X23	Y23	Z23	X24	Y24	Z24	X25	Y25	Z25	X26	Y26	Z26	X27	Y27	Z27	X28	Y28	Z28	X29	Y29	Z29	X30	Y30	Z30	X31	Y31	Z31	X32	Y32	Z32	X33	Y33	Z33	

36	39.392500000000	805.179230435330	1015.343541768102	498.844756500613	1037.252314364972	1440.812688678031	364.163283188682	1096.837973286083	1365.389006414205	539.809557390788	982.485301948304	1444.193321354715	693.032713033466	973.776742464466	1496.680419639409	514.719342031475	1014.467892784035	941.472496406481	646.745083499106	1037.392615231429	964.510421310506	374.429533391545	1065.961322137432	744.197600154605	612.961432488628	986.232119394447	632.743563132372	669.915438024617	1068.603824511230	583.010916668394	592.556627610052	1073.994162586628	495.934783616983	599.705594986130	1039.756715342392	734.179471688525	387.465264826315	925.282014976055	628.925177161159	307.158087202325	1002.711812494355	542.873168048055	368.113664525250	991.265613658320	471.058459865607	367.817676214391	944.745387224143	410.168679154215	355.055093666256	828.645899759572	324.783734275951	299.016666835724	854.962238124001	197.174657870520	354.790969380144	1045.164178798833	406.512155700919	608.253077667164	973.917413147808	304.020348787346	672.935146601802	1016.181796797297	207.609445568746	611.342134831125	882.815895948279	43.071815201501	587.465290075809	1054.334369832006	97.382305214970	620.523912223124	967.401230545458	36.842257751133	660.798175297923	1175.240019511732	46.418420877567	645.701143882102	699.484767252572	61.365793184247	388.781089526583	771.511446236838	48.069033224250	308.147228248603	861.905496727883	100.174874274536	332.072534536343	981.936327789389	37.643280132379	301.156718457487	1114.795641276611	1117.955179502854	209.656353544329	1371.000390855349	1105.000658050065	238.227503728005	806.068786237309	1144.020286673931	782.654768721999	787.143512312165	882.708420458677	800.517193312698	
37	39.414571428571	805.548280254965	1016.681855787067	506.503700337932	1036.424745096718	1441.233355441671	367.713412590782	1098.360816012312	1366.044149994987	542.690539240200	986.187162892987	1445.162673107317	697.260141869313	975.227970347337	1497.665620824256	518.808168636209	1016.312276734065	942.279277995054	651.848968024859	1036.157788838875	965.106755042420	379.085822611543	1064.509780274449	743.551136774727	617.563930369444	983.231401245472	632.993125118712	674.313996158952	1064.217288725293	582.552935735440	596.150191835439	1068.490306168943	495.880592454819	602.622958885910	1040.436066548957	735.631232889832	391.076838150259	926.779297168050	629.886694581036	310.928481891597	1006.520794775692	543.934963674616	370.112948629436	995.811276520061	471.281287881556	368.807750069617	947.563226518225	411.046487958815	356.245798651718	829.499748535861	328.098218644793	300.658717345330	854.485496601478	199.464132609652	354.628451570625	1040.008137969455	406.689888953721	610.756803863383	969.012550961699	303.661045413964	674.724316143674	1011.514841168934	207.714111074000	612.419790739096	878.516991903317	42.952238057357	587.575779541929	1049.973615342880	97.345272631313	620.739448499816	963.099261512831	36.784120397125	660.878375269569	1170.912084369405	46.442655625894	645.828188162504	696.612937198098	66.658956466675	388.405980153227	768.172801249187	50.910221953093	307.915238638048	859.859441731300	101.061002012353	331.231992686385	977.913496477078	37.401998041556	301.075555045590	1103.987768689206	1114.195655930921	215.211086114923	1358.712184173536	1081.214290179606	242.115570863656	812.608112638454	1144.192971978715	791.622234901120	796.685754089648	882.996883197602	812.291951056657	
38	39.436642857143	805.802805100838	1017.821667554375	514.196242084280	1035.128138607171	1441.435980592569	370.950604877050	1099.599522856619	1366.620716310795	545.220842424245	989.691133704948	1446.026398670794	701.157165692764	976.405721783404	1498.525032543819	522.601745390797	1018.109921525242	942.962148262641	656.817776805924	1034.773268710539	965.668852388500	383.662073945214	1063.205549718277	742.913023312310	621.918181513042	980.635781479041	633.131040163302	678.591097802565	1060.191530511957	582.073301593824	599.547944109355	1063.443147790862	495.752553212064	605.419915164950	1041.691622494707	737.301908746805	394.649365452853	929.323494077952	630.738840754906	314.603019169522	1011.628898218770	545.158141811415	372.062353152903	1001.773210450946	471.530651807943	369.642802593034	951.672676683604	411.902972353914	357.297344525553	831.532019339619	331.697839432176	302.177723323513	854.803901409093	202.039622076783	354.316007275553	1035.202363961534	406.793204909961	613.150049861617	964.396514299204	303.304455313283	676.429143033499	1006.990073015114	207.778883826019	613.419124051604	874.170682150940	42.886555804385	587.655868748417	1045.590937804986	97.290460710815	620.908310944992	958.749224530014	36.745451386464	660.915701465625	1166.547398837900	46.376327926946	645.926397019971	694.257088572006	72.932120869148	387.915584977780	765.153755430289	54.365177885835	307.592637889074	858.278888747009	102.104949014663	330.247828516181	973.903513525150	37.147324229994	301.004760896765	1092.471555926954	1110.319795576302	220.911852146034	1343.512067065577	1055.495837119477	245.931955041412	819.955575791176	1143.688750109938	800.316125084564	807.566084040520	882.583876403153	823.706756266713	
39	39.458714285714	805.934450198753	1018.676832922784	521.913927928682	1033.346538269380	1441.342817136638	373.904590140523	1100.532331718064	1367.039443280886	547.425917243230	992.973383425789	1446.702934359502	704.746972989046	977.274067820608	1499.179016425291	526.118782474277	1019.868158955869	943.466427119002	661.656943252745	1033.220160345323	966.140817580940	388.176472374987	1062.229865379711	742.304847939813	626.012648435189	978.706964378599	633.106010252344	682.711244403229	1056.856355078597	581.571764427490	602.732194309740	1059.239302264111	495.482410477778	608.081753874537	1043.533430983056	739.181910282323	398.227000296623	932.959541275374	631.481618857290	318.173925891083	1018.035625522531	546.573772783235	374.021353801627	1009.145586802310	471.848739615826	370.385815469567	957.117445101109	412.746999101692	358.249859698886	834.815255132173	335.605974198054	303.593068306296	855.972555330290	204.950763155349	353.899607734933	1031.037485690806	406.753644073939	615.402878595369	960.296977849059	302.930412455179	678.042958039398	1002.731928810192	207.760226136967	614.319650874709	869.784769797556	42.875337910779	587.708206930823	1041.197238790224	97.221217716334	621.031351142967	954.358130489220	36.729670527076	660.918869554292	1162.158308197920	46.213990067489	646.005772711379	692.528411738517	80.317452819806	387.353506341429	762.524136050772	58.590629045902	307.213193982593	857.200622194872	103.383974082379	329.176606694664	969.889567200137	36.840225873560	300.954019278583	1080.386628622985	1106.284014924548	226.864079434627	1325.081343192577	1028.174059701373	249.643647719608	828.260121341311	1142.361129376530	808.699365705404	819.986830082417	881.325925492284	834.672047902573	
40	39.480785714286	805.924548438906	1019.154024437705	529.630824421580	1031.082475860810	1440.870295395654	376.612724960382	1101.144377523629	1367.202843771906	549.337187106957	996.024228163709	1447.100959072169	708.059797231260	977.809411305250	1499.537996922278	529.385496482177	1021.580839479490	943.727170507366	666.364319401845	1031.464134271872	966.448561674479	392.638894142237	1061.736484720620	741.730488437687	629.840100930445	977.664176534330	632.856064895431	686.632006828084	1054.507154499362	581.038113454940	605.686268178813	1056.221066235860	494.996558025788	610.589367168528	1045.943820470940	741.250910024411	401.856445397784	937.708132584714	632.112238541057	321.639620686723	1025.705704976220	548.208174415551	376.068194661888	1017.893389876100	472.276154547182	371.124778024289	963.909009789174	413.584331910907	359.167734602777	839.390739171260	339.838656216276	304.951036954204	858.025095891954	208.243583136695	353.457535274854	1027.770868320758	406.497112495384	617.484557592661	956.910553081845	302.510506412244	679.553717107161	998.851100347557	207.612123637763	615.103503834409	865.373606603322	42.914632350782	587.737525368551	1036.806310117788	97.139789033226	621.110773539770	949.939652888178	36.736950290733	660.897448131767	1157.760228730384	45.958826193182	646.075123972879	691.530491483352	88.920723745116	386.801510528546	760.350264744428	63.745392319129	306.839785596106	856.645286887316	104.993881572635	328.106663253496	965.854321567896	36.436994469065	300.936369117079	1067.866168826992	1102.040559444837	233.152368026077	1303.175872580095	999.718182667427	253.228688985406	837.647046447013	1140.099367447848	816.736140604996	834.144279063873	879.131042594514	845.095649541068	
41	39.502857142857	805.749103304145	1019.155817452071	537.305914126970	1028.353662293955	1439.935945828492	379.115983418665	1101.426640445993	1367.003710973289	550.988165063830	998.844128021103	1447.124529549999	711.129492860952	978.000688762722	1499.508834690363	532.432873091577	1023.231986515800	943.673108891779	670.925846939083	1029.463452824956	966.503921908741	397.046245356983	1061.840672408971	741.173650522703	633.390068779633	977.670744943530	632.313180428081	690.303162824253	1053.380297655489	580.451813530890	608.388185316385	1054.657352564563	494.223065017602	612.913100702086	1048.876941935426	743.474795924912	405.581064688367	943.559323650236	632.624939494181	325.004952917569	1034.563454849357	550.077084508379	378.292031812356	1027.945097108031	472.845895800870	371.964874637001	972.014445313746	414.417325109043	360.134098309648	845.254712520652	344.399204221516	306.325381170523	860.965163732732	211.951369146768	353.097561148692	1025.606212423507	405.949977998660	619.360749717216	954.387499468304	302.011657742302	680.941056710191	995.434652448819	207.290128481457	615.753551964481	860.953686038732	42.998283832538	587.748617155190	1032.431133441946	97.046496239178	621.147893741383	945.509613462059	36.765280339812	660.859706273296	1153.367965548606	45.620117883777	646.141560152347	691.347445890656	98.794604491376	386.381148939330	758.688096462547	69.964058212040	306.565891028759	856.614219844738	107.038678823963	327.152977823022	961.784558738490	35.898798171214	300.966643853851	1055.015122414327	1097.547833674854	239.820809507221	1277.662770259551	970.729430056432	256.687121910217	848.200372010228	1136.840161811278	824.389835340738	850.226621136194	875.977089989348	854.884053595362	
